<svg width="12" height="16" viewBox="0 0 12 16" fill="none" xmlns="http://www.w3.org/2000/svg">
<path d="M10.7063 4.70625C11.0969 4.31563 11.0969 3.68125 10.7063 3.29063C10.3156 2.9 9.68127 2.9 9.29065 3.29063L6.00002 6.58438L2.70627 3.29375C2.31565 2.90313 1.68127 2.90313 1.29065 3.29375C0.900024 3.68438 0.900024 4.31875 1.29065 4.70938L4.5844 8L1.29377 11.2938C0.90315 11.6844 0.90315 12.3188 1.29377 12.7094C1.6844 13.1 2.31877 13.1 2.7094 12.7094L6.00002 9.41563L9.29377 12.7063C9.6844 13.0969 10.3188 13.0969 10.7094 12.7063C11.1 12.3156 11.1 11.6813 10.7094 11.2906L7.41565 8L10.7063 4.70625Z" fill="#555B6E"/>
</svg>
